<svg width="175" height="73" viewBox="0 0 175 73" fill="none" xmlns="http://www.w3.org/2000/svg">
<path d="M40.9432 21.2614C40.6705 18.5114 39.5 16.375 37.4318 14.8523C35.3636 13.3295 32.5568 12.5682 29.0114 12.5682C26.6023 12.5682 24.5682 12.9091 22.9091 13.5909C21.25 14.25 19.9773 15.1705 19.0909 16.3523C18.2273 17.5341 17.7955 18.875 17.7955 20.375C17.75 21.625 18.0114 22.7159 18.5795 23.6477C19.1705 24.5795 19.9773 25.3864 21 26.0682C22.0227 26.7273 23.2045 27.3068 24.5455 27.8068C25.8864 28.2841 27.3182 28.6932 28.8409 29.0341L35.1136 30.5341C38.1591 31.2159 40.9545 32.125 43.5 33.2614C46.0455 34.3977 48.25 35.7955 50.1136 37.4545C51.9773 39.1136 53.4205 41.0682 54.4432 43.3182C55.4886 45.5682 56.0227 48.1477 56.0455 51.0568C56.0227 55.3295 54.9318 59.0341 52.7727 62.1705C50.6364 65.2841 47.5455 67.7045 43.5 69.4318C39.4773 71.1364 34.625 71.9886 28.9432 71.9886C23.3068 71.9886 18.3977 71.125 14.2159 69.3977C10.0568 67.6705 6.80682 65.1136 4.46591 61.7273C2.14773 58.3182 0.931818 54.1023 0.818182 49.0795H15.1023C15.2614 51.4205 15.9318 53.375 17.1136 54.9432C18.3182 56.4886 19.9205 57.6591 21.9205 58.4545C23.9432 59.2273 26.2273 59.6136 28.7727 59.6136C31.2727 59.6136 33.4432 59.25 35.2841 58.5227C37.1477 57.7955 38.5909 56.7841 39.6136 55.4886C40.6364 54.1932 41.1477 52.7045 41.1477 51.0227C41.1477 49.4545 40.6818 48.1364 39.75 47.0682C38.8409 46 37.5 45.0909 35.7273 44.3409C33.9773 43.5909 31.8295 42.9091 29.2841 42.2955L21.6818 40.3864C15.7955 38.9545 11.1477 36.7159 7.73864 33.6705C4.32955 30.625 2.63636 26.5227 2.65909 21.3636C2.63636 17.1364 3.76136 13.4432 6.03409 10.2841C8.32955 7.125 11.4773 4.65909 15.4773 2.88636C19.4773 1.11363 24.0227 0.22727 29.1136 0.22727C34.2955 0.22727 38.8182 1.11363 42.6818 2.88636C46.5682 4.65909 49.5909 7.125 51.75 10.2841C53.9091 13.4432 55.0227 17.1023 55.0909 21.2614H40.9432ZM89.3608 72.0227C84.0653 72.0227 79.4858 70.8977 75.6222 68.6477C71.7813 66.375 68.8153 63.2159 66.7244 59.1705C64.6335 55.1023 63.5881 50.3864 63.5881 45.0227C63.5881 39.6136 64.6335 34.8864 66.7244 30.8409C68.8153 26.7727 71.7813 23.6136 75.6222 21.3636C79.4858 19.0909 84.0653 17.9545 89.3608 17.9545C94.6562 17.9545 99.2244 19.0909 103.065 21.3636C106.929 23.6136 109.906 26.7727 111.997 30.8409C114.088 34.8864 115.134 39.6136 115.134 45.0227C115.134 50.3864 114.088 55.1023 111.997 59.1705C109.906 63.2159 106.929 66.375 103.065 68.6477C99.2244 70.8977 94.6562 72.0227 89.3608 72.0227ZM89.429 60.7727C91.8381 60.7727 93.8494 60.0909 95.4631 58.7273C97.0767 57.3409 98.2926 55.4545 99.1108 53.0682C99.9517 50.6818 100.372 47.9659 100.372 44.9205C100.372 41.875 99.9517 39.1591 99.1108 36.7727C98.2926 34.3864 97.0767 32.5 95.4631 31.1136C93.8494 29.7273 91.8381 29.0341 89.429 29.0341C86.9972 29.0341 84.9517 29.7273 83.2926 31.1136C81.6563 32.5 80.4176 34.3864 79.5767 36.7727C78.7585 39.1591 78.3494 41.875 78.3494 44.9205C78.3494 47.9659 78.7585 50.6818 79.5767 53.0682C80.4176 55.4545 81.6563 57.3409 83.2926 58.7273C84.9517 60.0909 86.9972 60.7727 89.429 60.7727ZM137.736 55.9318L137.77 38.5114H139.884L156.656 18.6364H173.327L150.793 44.9545H147.349L137.736 55.9318ZM124.577 71V1.18182H139.099V71H124.577ZM157.304 71L141.895 48.1932L151.577 37.9318L174.315 71H157.304Z" fill="white" style="fill:white;fill-opacity:1;"/>
</svg>
